<?xml version="1.0" encoding="UTF-8" standalone="no"?>
<!-- Created with Inkscape (http://www.inkscape.org/) -->

<svg
   width="76.330147mm"
   height="50.011993mm"
   viewBox="0 0 76.330147 50.011993"
   version="1.1"
   id="svg5"
   inkscape:version="1.1 (c68e22c387, 2021-05-23)"
   sodipodi:docname="aura-ico.svg"
   xmlns:inkscape="http://www.inkscape.org/namespaces/inkscape"
   xmlns:sodipodi="http://sodipodi.sourceforge.net/DTD/sodipodi-0.dtd"
   xmlns="http://www.w3.org/2000/svg"
   xmlns:svg="http://www.w3.org/2000/svg">
  <sodipodi:namedview
     id="namedview7"
     pagecolor="#ffffff"
     bordercolor="#666666"
     borderopacity="1.0"
     inkscape:pageshadow="2"
     inkscape:pageopacity="0.0"
     inkscape:pagecheckerboard="0"
     inkscape:document-units="mm"
     showgrid="false"
     inkscape:zoom="0.90509668"
     inkscape:cx="-174.01456"
     inkscape:cy="98.884464"
     inkscape:window-width="1920"
     inkscape:window-height="1001"
     inkscape:window-x="-9"
     inkscape:window-y="-9"
     inkscape:window-maximized="1"
     inkscape:current-layer="text19460"
     units="mm"
     fit-margin-top="0"
     fit-margin-left="0"
     fit-margin-right="0"
     fit-margin-bottom="0" />
  <defs
     id="defs2">
    <pattern
       id="EMFhbasepattern"
       patternUnits="userSpaceOnUse"
       width="6"
       height="6"
       x="0"
       y="0" />
  </defs>
  <g
     inkscape:label="Layer 1"
     inkscape:groupmode="layer"
     id="layer1"
     style="display:none"
     sodipodi:insensitive="true"
     transform="translate(-110.62888,-39.59806)">
    <path
       style="fill:#808000;fill-opacity:1;fill-rule:evenodd;stroke:none;stroke-width:0.264583"
       d="M 0,0 V 4.9666595 H 99.333337 V 0 Z"
       id="path966" />
    <path
       style="fill:#808000;fill-opacity:1;fill-rule:evenodd;stroke:none;stroke-width:0.264583"
       d="M 99.333337,99.333337 V 94.366664 H 0 v 4.966673 z"
       id="path968" />
    <path
       style="fill:#808000;fill-opacity:1;fill-rule:evenodd;stroke:none;stroke-width:0.264583"
       d="M 4.96667,0 H 0 v 99.333337 h 4.96667 z"
       id="path970" />
    <path
       style="fill:#808000;fill-opacity:1;fill-rule:evenodd;stroke:none;stroke-width:0.264583"
       d="m 99.333337,5e-7 h -4.96667 V 99.333337 h 4.96667 z"
       id="path970-9" />
    <path
       style="fill:#808000;fill-opacity:1;fill-rule:evenodd;stroke:none;stroke-width:0.264583"
       d="m 17.631667,88.90333 h -1.73833 l -4.22167,-7.20167 -1.49,-2.48333 v 0 9.685 h -1.49 V 77.23166 h 1.73833 l 4.22167,7.20167 1.49,2.48333 v 0 -9.685 h 1.49 z"
       id="path972" />
    <path
       style="fill:#808000;fill-opacity:1;fill-rule:evenodd;stroke:none;stroke-width:0.264583"
       d="m 23.839997,81.205 h -0.24833 v 0 h -0.24833 -0.24834 l -0.24833,0.24833 v 0 h -0.24833 v 0 0 l -0.24834,0.24833 -0.24833,0.24834 v 0 h -0.24833 v 0.24833 0 0 l -0.24834,0.24833 v 0.24834 0 l -0.24833,0.24833 v 0 0.24833 0 0.24834 0.49666 0 h 4.71833 v -0.24833 0 0 0 0 V 83.44 83.19166 82.695 l -0.24833,-0.24834 -0.24833,-0.24833 V 81.95 v 0 l -0.24834,-0.24834 v 0 l -0.24833,-0.24833 h -0.24833 L 24.584997,81.205 h -0.49666 z m 0.24834,-1.24167 0.24833,0.24833 h 0.24833 0.24834 0.24833 l 0.24833,0.24834 v 0 h 0.24834 v 0 l 0.24833,0.24833 h 0.24833 v 0.24833 l 0.24834,0.24834 h 0.24833 v 0 0.24833 h 0.24833 v 0.24833 l 0.24834,0.24834 v 0.24833 l 0.24833,0.24833 v 0.24834 0 0 0.24833 l 0.24833,0.24833 V 83.44 83.68833 83.93666 84.43333 84.93 h -6.20833 v 0.49666 0 0 0.24834 0 0.24833 0.24833 l 0.24833,0.24834 v 0 0 0.24833 0 l 0.24834,0.24833 0.24833,0.24834 v 0.24833 0 0 0 l 0.24833,0.24833 v 0 l 0.49667,0.24834 v 0 0 0 h 0.24833 0.24834 v 0 h 0.49666 0.24834 v 0 h 0.24833 0.24833 0.24834 l 0.24833,-0.24834 h 0.24833 v 0 0 l 0.24834,-0.24833 v 0 l 0.24833,-0.24833 0.24833,-0.24834 v -0.24833 l 0.24834,-0.24833 0.99333,0.745 v 0 l -0.24833,0.24833 v 0 l -0.24834,0.24833 V 87.91 l -0.24833,0.24833 -0.24833,0.24833 -0.49667,0.24834 v 0 0 l -0.24833,0.24833 h -0.24834 -0.24833 l -0.49667,0.24833 h -0.24833 -0.49667 -0.24833 v 0 h -0.24833 -0.24834 -0.24833 l -0.49667,-0.24833 h -0.24833 v 0 0 L 21.853337,88.655 v 0 h -0.24834 l -0.24833,-0.24834 -0.24833,-0.24833 -0.24834,-0.24833 v 0 0 -0.24834 h -0.24833 V 87.41333 L 20.363337,87.165 V 86.91666 L 20.114997,86.42 v 0 0 -0.24834 -0.24833 L 19.866667,85.675 V 85.42666 84.93 v -0.24834 0 0 -0.24833 0 V 84.185 83.93666 83.68833 L 20.114997,83.44 v -0.24834 -0.49666 0 0 l 0.24834,-0.24834 V 82.19833 81.95 l 0.24833,-0.24834 0.24833,-0.24833 v -0.24833 0 h 0.24834 v 0 l 0.24833,-0.24834 h 0.24833 V 80.70833 L 21.853337,80.46 h 0.24833 0.24833 v -0.24834 0 h 0.24834 0.24833 0.24833 l 0.49667,-0.24833 h 0.24833 v 0 z"
       id="path974" />
    <path
       style="fill:#808000;fill-opacity:1;fill-rule:evenodd;stroke:none;stroke-width:0.264583"
       d="m 34.021667,79.96333 0.24833,0.24833 h 0.24834 0.24833 0.24833 l 0.24834,0.24834 v 0 0 h 0.24833 l 0.24833,0.24833 v 0 l 0.24834,0.24833 0.24833,0.24834 h 0.24833 v 0 0.24833 0 l 0.24834,0.24833 V 81.95 l 0.24833,0.24833 v 0.24833 0.24834 0 l 0.24833,0.24833 v 0.24833 0 0.49667 0.24833 0.24834 0.49666 0 0 0 0.24834 0 0.24833 0.49667 0.24833 0.24833 l -0.24833,0.49667 v 0 0 0.24833 0.24834 h -0.24833 v 0.24833 l -0.24834,0.24833 V 87.91 h -0.24833 v 0.24833 0 l -0.24833,0.24833 v 0 l -0.24834,0.24834 h -0.24833 l -0.24833,0.24833 v 0 h -0.24834 v 0 l -0.24833,0.24833 h -0.24833 -0.24834 -0.24833 -0.24833 v 0 h -0.24834 v 0 h -0.24833 v 0 l -0.49667,-0.24833 h -0.24833 -0.24833 V 88.655 h -0.24834 l -0.24833,-0.24834 -0.24833,-0.24833 -0.24834,-0.24833 v -0.24834 0 4.718344 h -1.49 V 80.21166 h 1.49 v 1.49 0 0 -0.24833 0 l 0.24834,-0.24833 v -0.24834 l 0.24833,-0.24833 h 0.24833 L 32.283337,80.46 v 0 0 h 0.24833 l 0.24833,-0.24834 h 0.24834 0.24833 l 0.24833,-0.24833 h 0.24834 z m -0.49667,1.24167 h -0.24833 -0.24833 -0.24834 l -0.24833,0.24833 v 0 0 h -0.24833 v 0 l -0.24834,0.24833 h -0.24833 v 0 0 L 31.538337,81.95 v 0.24833 h -0.24834 v 0.24833 0 0 0 0.24834 0.24833 3.22833 0 0.24834 0 0 0.24833 0.24833 0 0.24834 h 0.24834 v 0 0.24833 l 0.24833,0.24833 v 0 0 h 0.24833 v 0 l 0.24834,0.24834 h 0.24833 v 0 0 h 0.24833 v 0 h 0.24834 v 0 h 0.49666 v 0 0 h 0.24834 0.24833 0.24833 l 0.49667,-0.24834 h 0.24833 l 0.24834,-0.24833 v -0.24833 0 l 0.24833,-0.24834 V 86.66833 L 35.759997,86.42 v -0.24834 -0.24833 -0.49667 -1.49 0 0 -0.24833 0 V 83.44 83.19166 82.94333 L 35.511667,82.695 V 82.19833 L 35.263337,81.95 v 0 h -0.24834 v -0.24834 h -0.24833 l -0.24833,-0.24833 h -0.24834 L 33.773337,81.205 Z"
       id="path976" />
    <path
       style="fill:#808000;fill-opacity:1;fill-rule:evenodd;stroke:none;stroke-width:0.264583"
       d="m 41.471667,80.21166 h 1.98667 v 1.24167 h -1.98667 V 87.91 h 1.73833 v 0.99333 h -1.73833 -0.24833 v 0 h -0.24834 -0.24833 V 88.655 h -0.24833 v 0 0 -0.24834 h -0.24834 V 88.15833 87.91 v 0 -0.24834 -6.20833 h -1.49 v -1.24167 h 0.99334 v 0 h 0.24833 v 0 0 l 0.24833,-0.24833 v 0 0 0 -0.24833 0 -0.24834 -1.73833 h 1.24167 z"
       id="path978" />
    <path
       style="fill:#808000;fill-opacity:1;fill-rule:evenodd;stroke:none;stroke-width:0.264583"
       d="m 52.398337,88.90333 h -1.49 v -1.24167 0 0 0 0 0 L 50.659997,87.91 v 0.24833 0 h -0.24833 v 0.24833 l -0.24833,0.24834 v 0 0 h -0.24834 v 0.24833 0 h -0.24833 l -0.24833,0.24833 v 0 0 h -0.24834 v 0 h -0.24833 v 0 h -0.49667 v 0 h -0.24833 v 0 h -0.24833 -0.24834 l -0.24833,-0.24833 h -0.49667 l -0.24833,-0.24833 -0.49667,-0.24834 v 0 0 -0.24833 L 45.941667,87.91 v -0.24834 l -0.24833,-0.24833 V 86.91666 L 45.444997,86.42 v -0.49667 -5.71167 h 1.49 v 5.46334 0 0 0.24833 0 0.24833 0.24834 0.24833 l 0.24834,0.24833 V 87.165 h 0.24833 v 0.24833 l 0.24833,0.24833 h 0.24834 l 0.24833,0.24834 h 0.24833 0.49667 v 0 h 0.24833 0.24834 0.24833 v 0 0 0 h 0.24833 l 0.24834,-0.24834 h 0.24833 v 0 0 -0.24833 h 0.24833 v -0.24833 0 l 0.24834,-0.24834 v 0 0 -0.24833 0 V 86.42 80.21166 h 1.49 z"
       id="path980" />
    <path
       style="fill:#808000;fill-opacity:1;fill-rule:evenodd;stroke:none;stroke-width:0.264583"
       d="m 59.351667,79.96333 v 0 l 0.24833,0.24833 h 0.24834 0.24833 l 0.49667,0.24834 0.24833,0.24833 h 0.24833 v 0.24833 h 0.24834 v 0.24834 0 l 0.24833,0.24833 0.24833,0.49667 v 0.49666 l 0.24834,0.49667 V 83.44 88.90333 h -1.49 v -5.215 0 -0.24833 0 -0.24834 0 -0.24833 -0.24833 l -0.24834,-0.24834 V 82.19833 L 60.096667,81.95 v -0.24834 h -0.24833 l -0.24834,-0.24833 h -0.24833 L 59.103337,81.205 h -0.49667 v 0 h -0.24833 -0.24834 l -0.24833,0.24833 v 0 0 0 h -0.24833 -0.24834 l -0.24833,0.24833 v 0 0 0 l -0.24833,0.24834 -0.24834,0.24833 v 0 0 0.24833 0 0.24834 0.24833 5.96 h -1.49 v -8.69167 h 1.49 v 1.49 0 0 -0.24833 h 0.24834 V 81.205 80.95666 h 0.24833 l 0.24833,-0.24833 0.24834,-0.24833 v 0 0 h 0.24833 v -0.24834 h 0.24833 0.24834 l 0.24833,-0.24833 h 0.49667 v 0 z"
       id="path982" />
    <path
       style="fill:#808000;fill-opacity:1;fill-rule:evenodd;stroke:none;stroke-width:0.264583"
       d="m 65.559997,76.48666 h 0.24834 0.24833 v 0.24834 0 0 h 0.24833 v 0.24833 0.24833 0.24834 0 0 0 0.24833 0.24833 h -0.24833 v 0 0.24834 h -0.24833 v 0 h -0.24834 -0.24833 v 0 0 h -0.24833 l -0.24834,-0.24834 v 0 0 0 l -0.24833,-0.24833 V 77.48 v -0.24834 0 0 0 -0.24833 h 0.24833 v -0.24833 0 0 0 l 0.24834,-0.24834 v 0 h 0.24833 v 0 z m 0.49667,12.41667 h -1.24167 v -8.69167 h 1.24167 z"
       id="path984" />
    <path
       style="fill:#808000;fill-opacity:1;fill-rule:evenodd;stroke:none;stroke-width:0.264583"
       d="m 75.741667,88.90333 h -1.24167 v -1.24167 h -0.24833 v 0 0 0 0 0.24834 l -0.24833,0.24833 v 0 0 l -0.24834,0.24833 V 88.655 h -0.24833 v 0 0 0.24833 h -0.24833 -0.24834 l -0.24833,0.24833 v 0 0 0 h -0.24833 v 0 h -0.24834 -0.24833 -0.24833 v 0 h -0.24834 v 0 h -0.49666 l -0.24834,-0.24833 h -0.24833 l -0.49667,-0.24833 -0.24833,-0.24834 v 0 0 l -0.24833,-0.24833 V 87.91 l -0.24834,-0.24834 v -0.24833 l -0.24833,-0.49667 V 86.42 85.92333 80.21166 h 1.24167 v 5.46334 0 0 0.24833 0 0.24833 0.24834 l 0.24833,0.24833 v 0.24833 l 0.24833,0.24834 v 0 l 0.24834,0.24833 0.24833,0.24833 v 0 l 0.24833,0.24834 h 0.49667 0.24833 0.24834 v 0 h 0.24833 0.24833 v 0 h 0.24834 v 0 0 l 0.24833,-0.24834 h 0.24833 v 0 0 l 0.24834,-0.24833 v 0 l 0.24833,-0.24833 v 0 -0.24834 0 0 -0.24833 h 0.24833 V 86.42 80.21166 h 1.24167 z"
       id="path986" />
    <path
       style="fill:#808000;fill-opacity:1;fill-rule:evenodd;stroke:none;stroke-width:0.264583"
       d="m 87.909997,79.96333 0.24834,0.24833 h 0.49666 0.24834 l 0.24833,0.24834 0.49667,0.24833 v 0 l 0.24833,0.24833 v 0 0.24834 h 0.24833 v 0.24833 l 0.24834,0.49667 v 0.49666 l 0.24833,0.49667 V 83.44 88.90333 h -1.49 v -5.215 0 0 -0.24833 0 -0.24834 -0.24833 -0.24833 -0.24834 l -0.24833,-0.24833 V 81.95 v 0 l -0.24834,-0.24834 v 0 l -0.24833,-0.24833 h -0.24833 -0.24834 L 87.661667,81.205 h -0.24833 -0.24834 v 0 h -0.24833 l -0.24833,0.24833 v 0 h -0.24834 v 0 0 h -0.24833 l -0.24833,0.24833 v 0 0 h -0.24834 V 81.95 l -0.24833,0.24833 v 0 0 0.24833 0 0.24834 0.24833 5.96 h -1.49 v -5.215 0 0 -0.24833 0 -0.24834 -0.24833 -0.24833 l -0.24833,-0.24834 V 82.19833 L 83.439997,81.95 v 0 -0.24834 h -0.24833 v -0.24833 h -0.24833 -0.24834 L 82.446667,81.205 h -0.24833 -0.24834 v 0 h -0.49666 l -0.24834,0.24833 v 0 0 0 h -0.24833 v 0 l -0.24833,0.24833 v 0 0 h -0.24834 L 80.211667,81.95 v 0.24833 0 0 0.24833 0 l -0.24833,0.24834 v 0.24833 5.96 h -1.24167 v -8.69167 h 1.24167 v 1.49 0 0 h 0.24833 v -0.24833 0 -0.24833 l 0.24833,-0.24834 v 0 0 0 l 0.24834,-0.24833 0.24833,-0.24833 v 0 0 0 0 l 0.24833,-0.24834 h 0.24834 v 0 h 0.24833 v 0 0 h 0.24833 v -0.24833 h 0.49667 v 0 h 0.24833 l 0.24834,0.24833 h 0.24833 0.24833 l 0.24834,0.24834 h 0.24833 v 0 h 0.24833 v 0.24833 h 0.24834 l 0.24833,0.24833 V 81.205 l 0.24833,0.24833 0.24834,0.49667 v 0 -0.24834 0 0 l 0.24833,-0.24833 V 81.205 l 0.24833,-0.24834 v -0.24833 h 0.24834 L 86.171667,80.46 v 0 0 l 0.24833,-0.24834 h 0.24834 0.24833 l 0.49667,-0.24833 z"
       id="path988" />
    <path
       style="fill:#808000;fill-opacity:1;fill-rule:evenodd;stroke:none;stroke-width:0.264583"
       d="m 73.009997,11.175 h -0.24833 -0.24833 l -0.24834,0.24833 h -0.49666 l -0.24834,0.24833 h -0.49666 L 70.774997,11.92 v 0.24833 0 l -0.24833,0.24833 -0.24833,0.24834 v 0.24833 L 70.029997,13.41 v 0.24833 0.49667 0.24833 0 0 0.24833 0 0.24834 0.49666 l 0.24834,0.24834 v 0.49666 l 0.24833,0.24834 0.24833,0.24833 v 0 l 0.24834,0.24833 v 0 l 0.24833,0.24834 h 0.49667 l 0.24833,0.24833 h 0.49667 0.49666 0.24834 0.24833 0.24833 0.49667 l 0.24833,-0.24833 0.24834,-0.24834 0.49666,-0.24833 v 0 0 L 75.493337,16.39 v -0.24834 l 0.24833,-0.24833 0.24833,-0.49667 V 14.9 14.40333 14.155 v 0 0 0 0 V 13.65833 13.41 l -0.24833,-0.24834 V 12.665 L 75.493337,12.41666 75.244997,11.92 v 0 h -0.24833 l -0.24833,-0.24834 h -0.24834 l -0.24833,-0.24833 h -0.24833 L 73.506667,11.175 Z m 0.49667,-1.9866701 h 0.24833 0.24834 l 0.49666,0.24833 h 0.24834 l 0.49666,0.24834 v 0 0 h 0.24834 l 0.24833,0.2483297 0.24833,0.2483304 0.24834,0.24834 0.49666,0.24833 0.24834,0.24833 v 0 0 l 0.24833,0.24834 v 0.24833 l 0.24833,0.24833 0.24834,0.24834 v 0.49666 l 0.24833,0.49667 v 0 0 0.24833 l 0.24833,0.49667 V 13.90666 14.40333 14.9 l 0.24834,0.49666 v 0 0 0 0.24834 l -0.24834,0.24833 v 0 0.49667 0.49666 0.49667 l -0.24833,0.745 -0.24833,0.49667 v 0 0 0.24833 0 0.24833 l -0.24834,0.49667 -0.24833,0.49667 -0.24833,0.24833 -0.24834,0.49667 -0.24833,0.49666 v 0.24834 0 h -0.24833 v 0.24833 l -0.24834,0.49667 -0.24833,0.24833 -0.24833,0.24833 -0.49667,0.49667 -0.24833,0.49667 v 0 h -0.24834 l -0.24833,0.24833 -0.24833,0.24833 -0.24834,0.24834 -0.24833,0.24833 -0.49667,0.24833 -0.24833,0.24834 h -2.73167 v 0 0 l 0.24834,-0.24834 0.24833,-0.24833 0.24833,-0.24833 0.24834,-0.24834 0.49666,-0.49666 0.49667,-0.24834 0.24833,-0.49666 v 0 h 0.24834 v -0.24834 l 0.24833,-0.24833 0.24833,-0.24833 0.49667,-0.24834 0.49667,-0.745 v 0 0 l 0.24833,-0.24833 0.24833,-0.24833 v -0.24834 l 0.24834,-0.49666 0.24833,-0.24834 0.24833,-0.49666 v 0 0 -0.24834 l 0.24834,-0.24833 v -0.49667 l 0.24833,-0.24833 V 17.88 18.12833 l -0.24833,0.24833 -0.49667,0.24834 -0.24833,0.24833 v 0 h -0.24834 v 0.24833 h -0.24833 L 73.754997,19.37 h -0.49666 -0.24834 -0.745 v 0 h -0.24833 -0.24833 -0.24834 -0.49666 -0.24834 l -0.24833,-0.24834 v 0 h -0.24833 -0.24834 v -0.24833 h -0.24833 l -0.24833,-0.24833 -0.24834,-0.24834 -0.24833,-0.24833 v 0 h -0.24833 V 17.88 l -0.24834,-0.24834 v -0.24833 l -0.24833,-0.24833 -0.24833,-0.24834 v -0.24833 h -0.24834 V 16.39 16.14166 15.89333 15.645 l -0.24833,-0.24834 V 14.9 v -0.49667 0 0 0 V 14.155 13.90666 L 67.794997,13.41 V 13.16166 12.665 l 0.24834,-0.24834 v 0 V 12.16833 11.92 h 0.24833 v -0.49667 l 0.24833,-0.24833 0.24834,-0.24834 0.24833,-0.24833 v 0 h 0.24833 V 10.43 l 0.24834,-0.24834 h 0.24833 l 0.24833,-0.2483304 0.24834,-0.2483297 h 0.49666 v -0.24834 h 0.24834 v 0 h 0.24833 l 0.49667,-0.24833 h 0.24833 0.49667 0.49666 0.24834 z"
       id="path990" />
    <path
       style="fill:#808000;fill-opacity:1;fill-rule:evenodd;stroke:none;stroke-width:0.264583"
       d="m 86.668337,9.1883299 h 0.24833 0.49667 l 0.49666,0.24833 v 0 h 0.24834 0.24833 v 0.24834 h 0.24833 l 0.49667,0.2483297 0.49667,0.2483304 v 0 0.24834 h 0.24833 v 0.24833 h 0.24833 l 0.24834,0.24833 V 11.175 l 0.24833,0.49666 v 0 0 0.24834 l 0.24833,0.24833 v 0.24833 0.24834 0.24833 0.49667 0 0 0.24833 0 0.24833 0.24834 l -0.24833,0.49666 v 0 0.24834 0 0.24833 l -0.24833,0.24833 -0.24834,0.49667 v 0 h -0.24833 v 0 0.24833 h -0.24833 l -0.24834,0.24834 -0.24833,0.24833 v 0 h -0.24833 v 0 l -0.24834,0.24833 h -0.24833 v 0 l 0.24833,0.24834 0.49667,0.24833 v 0 0 h 0.24833 v 0 l 0.49667,0.24833 0.24833,0.49667 v 0 h 0.24834 v 0.24833 0 l 0.24833,0.24834 v 0.24833 l 0.24833,0.24833 V 19.37 h 0.24834 v 0 0.24833 0.24833 0.24834 0.24833 l 0.24833,0.24833 v 0.24834 0 0.24833 l -0.24833,0.24833 V 21.605 21.85333 22.10166 22.35 l -0.24834,0.49666 v 0 0 l -0.24833,0.24834 v 0.24833 l -0.24833,0.24833 -0.24834,0.24834 v 0.24833 l -0.49666,0.24833 v 0 0 l -0.24834,0.24834 v 0 l -0.24833,0.24833 -0.49667,0.24833 h -0.24833 L 87.909997,25.33 v 0 0 h -0.24833 -0.24833 l -0.24834,0.24833 h -0.49666 -0.49667 -0.24833 -0.49667 -0.24833 -0.24834 -0.24833 l -0.745,-0.24833 v 0 0 h -0.24833 -0.24834 l -0.24833,-0.24834 h -0.24833 l -0.49667,-0.24833 v 0 -0.24833 0 h -0.24833 L 81.701667,24.33666 81.453337,23.84 v 0 0 l -0.24834,-0.24834 v 0 l -0.24833,-0.24833 V 23.095 l -0.24833,-0.49667 1.49,-0.99333 v 0 h 0.24833 v 0 0.24833 l 0.24833,0.24833 0.24834,0.24834 v 0 0 l 0.24833,0.24833 0.24833,0.24833 0.24834,0.24834 v 0 0 h 0.24833 v 0 l 0.24833,0.24833 h 0.49667 v 0 0 0 h 0.24833 l 0.24834,0.24833 h 0.24833 0.24833 0.24834 0.49666 l 0.24834,-0.24833 h 0.24833 l 0.49667,-0.24833 h 0.24833 l 0.49667,-0.24834 v 0 -0.24833 h 0.24833 V 22.35 l 0.24833,-0.24834 V 21.605 l 0.24834,-0.24834 V 20.86 v -0.24834 0 0 0 -0.24833 l -0.24834,-0.49667 V 19.61833 19.37 l -0.24833,-0.24834 -0.24833,-0.24833 V 18.625 h -0.24834 -0.24833 l -0.24833,-0.24834 h -0.24834 l -0.49666,-0.24833 h -0.24834 -0.745 -1.98666 v -2.235 h 2.235 0.24833 0.24833 0.49667 l 0.24833,-0.24833 h 0.49667 l 0.24833,-0.24834 v 0 -0.24833 h 0.24834 V 14.9 l 0.24833,-0.24834 V 14.40333 L 88.654997,14.155 V 13.65833 13.41 v 0 0 -0.24834 l -0.24833,-0.24833 V 12.665 l -0.24833,-0.24834 V 12.16833 L 87.909997,11.92 v 0 l -0.24833,-0.24834 v 0 l -0.24833,-0.24833 h -0.24834 -0.24833 L 86.419997,11.175 h -0.49666 v 0 h -0.24834 l -0.24833,0.24833 h -0.24833 -0.49667 l -0.24833,0.24833 h -0.24834 v 0 0.24834 h -0.24833 l -0.24833,0.24833 v 0.24833 l -0.24834,0.24834 -0.24833,0.24833 -0.24833,0.24833 -1.73834,-1.24166 v 0 0 l 0.24834,-0.24834 v 0 l 0.24833,-0.49666 0.24833,-0.24834 v 0 l 0.24834,-0.24833 v 0 0 l 0.49666,-0.24833 0.24834,-0.4966704 v 0 h 0.24833 v 0 l 0.24833,-0.2483297 h 0.24834 0.24833 l 0.49667,-0.24834 v 0 0 h 0.24833 l 0.24833,-0.24833 h 0.24834 0.24833 0.24833 0.745 z"
       id="path992" />
    <path
       style="fill:#808000;fill-opacity:1;fill-rule:evenodd;stroke:none;stroke-width:0.264583"
       d="m 46.686667,64.07 h -6.45667 l -14.155,-24.08834 -3.725,-6.705 V 64.07 h -5.71166 V 24.33666 h 6.20833 l 14.40333,24.08834 3.725,6.705 V 24.33666 h 5.71167 z"
       id="path994" />
    <path
       style="fill:#808000;fill-opacity:1;fill-rule:evenodd;stroke:none;stroke-width:0.264583"
       d="m 70.774997,33.77333 h 0.49667 l 0.99333,0.24833 0.745,0.24834 0.745,0.24833 0.99334,0.24833 0.24833,0.24834 h 0.24833 l 0.24834,0.24833 0.49666,0.49667 0.745,0.24833 0.49667,0.745 0.745,0.49667 0.745,0.745 v 0 l 0.24833,0.24833 0.24834,0.49667 0.24833,0.49666 0.49667,0.745 0.24833,0.99334 0.49667,0.99333 0.24833,0.99333 h 0.24833 v 0.49667 l 0.24834,0.49667 V 44.7 l 0.24833,0.99333 v 0.99333 l 0.24833,1.24167 v 1.24167 0 0.24833 0 0.49667 0.49666 l -0.24833,0.99334 v 0.99333 0.99333 l -0.24833,0.99334 -0.49667,1.24166 v 0 0.49667 l -0.24833,0.49667 -0.24834,0.745 -0.24833,0.745 -0.49667,0.745 -0.49666,0.745 -0.49667,0.745 -0.24833,0.24833 -0.24834,0.24833 -0.24833,0.24834 -0.49667,0.49666 -0.49666,0.49667 -0.745,0.49667 -0.745,0.49666 -0.745,0.49667 v 0 l -0.49667,0.24833 h -0.49667 l -0.49666,0.24834 -0.745,0.24833 -0.99334,0.24833 h -0.745 -1.24166 -0.24834 -0.24833 -0.49667 -0.49666 l -0.49667,-0.24833 -1.24167,-0.24833 -0.745,-0.24834 -0.745,-0.49666 -0.745,-0.24834 -0.745,-0.745 -0.49666,-0.49666 -0.745,-0.745 -0.24834,-0.49667 v 14.40333 h -5.71166 V 34.27 h 5.71166 v 3.47666 -0.24833 l 0.24834,-0.49667 0.745,-0.745 0.49666,-0.49666 0.99334,-0.745 v 0 h 0.24833 l 0.49667,-0.24834 0.745,-0.49666 h 0.745 l 0.99333,-0.24834 0.99333,-0.24833 h 0.99334 0.49666 z m -2.235,4.96667 h -0.49666 -0.49667 l -0.745,0.24833 -0.99333,0.24833 v 0 h -0.24834 -0.24833 l -0.24833,0.24834 -0.745,0.24833 -0.745,0.49667 v 0 0.24833 l -0.49667,0.24833 -0.49667,0.49667 -0.49666,0.49667 v 0.24833 0 0.24833 l -0.24834,0.745 v 0.745 10.67834 0 0.24833 0.24833 0.24834 0.745 l 0.24834,0.745 v 0 l 0.24833,0.24833 0.24833,0.24833 0.49667,0.745 0.49667,0.49667 v 0 h 0.24833 l 0.24833,0.24833 h 0.24834 l 0.49666,0.49667 0.99334,0.24833 v 0 h 0.24833 0.24833 0.24834 L 67.546667,59.6 h 0.99333 v 0 h 0.49667 0.745 l 0.745,-0.24834 0.745,-0.24833 0.99333,-0.49667 0.99334,-0.49666 0.745,-0.745 v 0 l 0.24833,-0.24834 0.49667,-0.49666 0.24833,-0.745 0.49667,-0.745 0.24833,-0.99334 0.24833,-1.24166 v -1.24167 -4.96667 0 0 V 46.43833 46.19 45.445 l -0.24833,-0.745 -0.24833,-0.99334 -0.24834,-0.99333 -0.49666,-0.745 -0.745,-0.99333 v 0 l -0.24834,-0.24834 -0.49666,-0.49666 -0.745,-0.49667 -0.745,-0.24833 -0.99334,-0.49667 -0.99333,-0.24833 z"
       id="path996" />
  </g>
  <g
     inkscape:groupmode="layer"
     id="layer2"
     inkscape:label="Layer 2"
     style="display:none"
     transform="translate(-110.62888,-39.59806)">
    <text
       xml:space="preserve"
       style="font-style:normal;font-weight:normal;font-size:56.4444px;line-height:1.25;font-family:sans-serif;fill:#000000;fill-opacity:1;stroke:none;stroke-width:0.264583"
       x="11.867607"
       y="63.750084"
       id="text2216"><tspan
         sodipodi:role="line"
         id="tspan2214"
         style="font-style:normal;font-variant:normal;font-weight:normal;font-stretch:normal;font-size:56.4444px;font-family:'IBM Plex Sans';-inkscape-font-specification:'IBM Plex Sans';stroke-width:0.264583"
         x="11.867607"
         y="63.750084">Np</tspan></text>
    <text
       xml:space="preserve"
       style="font-style:normal;font-variant:normal;font-weight:normal;font-stretch:normal;font-size:16.9333px;line-height:1.25;font-family:'IBM Plex Sans';-inkscape-font-specification:'IBM Plex Sans';fill:#000000;fill-opacity:1;stroke:none;stroke-width:0.264583"
       x="7.1413736"
       y="89.013885"
       id="text10807"><tspan
         sodipodi:role="line"
         id="tspan10805"
         style="font-style:normal;font-variant:normal;font-weight:normal;font-stretch:normal;font-size:16.9333px;font-family:'IBM Plex Sans';-inkscape-font-specification:'IBM Plex Sans';stroke-width:0.264583"
         x="7.1413736"
         y="89.013885"
         rotate="0 0 0 0 0 0 0 0 0 0">Aura</tspan></text>
    <text
       xml:space="preserve"
       style="font-style:normal;font-weight:normal;font-size:22.9306px;line-height:1.25;font-family:sans-serif;fill:#000000;fill-opacity:1;stroke:none;stroke-width:0.264583"
       x="65.939125"
       y="25.528156"
       id="text14055"><tspan
         sodipodi:role="line"
         id="tspan14053"
         style="font-style:normal;font-variant:normal;font-weight:normal;font-stretch:normal;font-size:22.9306px;font-family:'IBM Plex Sans';-inkscape-font-specification:'IBM Plex Sans';stroke-width:0.264583"
         x="65.939125"
         y="25.528156">93</tspan></text>
    <rect
       id="rect17345"
       width="4.9666696"
       height="99.333336"
       x="0"
       y="0"
       style="stroke-width:0.264583" />
    <rect
       id="rect17347"
       width="4.9666696"
       height="99.333336"
       x="94.366661"
       y="5e-07"
       style="stroke-width:0.264583" />
    <rect
       id="rect17351"
       width="99.333336"
       height="4.9666729"
       x="0"
       y="94.366661"
       style="stroke-width:0.264583" />
    <rect
       id="rect17535"
       width="99.333336"
       height="4.9666591"
       x="0"
       y="0"
       style="stroke-width:0.264583" />
  </g>
  <g
     inkscape:groupmode="layer"
     id="g19478"
     inkscape:label="Layer 2 path"
     transform="translate(-110.62888,-39.59806)">
    <g
       aria-label="Np"
       id="text19460"
       style="font-size:56.4444px;line-height:1.25;stroke-width:0.264583">
      <path
         style="color:#000000;font-size:24.9935px;font-family:'Microgramma D Extended';-inkscape-font-specification:'Microgramma D Extended';fill:#ebe1c5;stroke-width:1.87452;-inkscape-stroke:none"
         d="m 169.63853,89.610052 h 17.3205 L 160.79084,39.59806 H 137.097 l -26.46812,50.011992 h 17.39548 l 4.27389,-8.472795 h 33.0664 z m -9.5975,-19.419948 h -22.34419 l 9.67249,-18.970067 h 2.99922 z"
         id="path16421" />
    </g>
  </g>
</svg>
